<svg xmlns="http://www.w3.org/2000/svg" width="64" height="64" viewBox="0 0 64 64">
    <g fill="none" fill-rule="evenodd">
        <path fill="#1DA6B6" d="M8 10h14v6H8z"/>
        <path fill="#FF868D" fill-rule="nonzero" d="M57.104 16h-1.402c-1.035 0-1.875.84-1.875 1.878H43.753c0-1.037-.84-1.878-1.875-1.878H6.896C3.093 16 0 19.098 0 22.905v34.19C0 60.901 3.093 64 6.896 64h50.208C60.906 64 64 60.902 64 57.094V22.905C64 19.098 60.906 16 57.104 16z"/>
        <path fill="#FF3D66" fill-rule="nonzero" d="M57.104 16h-1.402c-1.035 0-1.875.84-1.875 1.878H43.753c0-1.037-.84-1.878-1.875-1.878H32v48h25.104C60.906 64 64 60.902 64 57.094V22.905C64 19.098 60.906 16 57.104 16z"/>
        <path fill="#FFBE14" fill-rule="nonzero" d="M49 23.607l-6.068 3.085a1.876 1.876 0 0 1-1.824-.031 1.88 1.88 0 0 1-.94-1.563l-.228-6.567-5.578-3.48a1.88 1.88 0 0 1 0-3.189l5.578-3.48.228-6.567A1.882 1.882 0 0 1 42.932.22L49 3.306v20.3z"/>
        <path fill="#073766" fill-rule="nonzero" d="M32 26c-8.822 0-16 7.177-16 16 0 8.822 7.178 16 16 16s16-7.178 16-16c0-8.823-7.178-16-16-16z"/>
        <path fill="#1BA7B6" fill-rule="nonzero" d="M32 32c-5.514 0-10 4.486-10 10s4.486 10 10 10 10-4.486 10-10-4.486-10-10-10z"/>
        <path fill="#FEBE16" fill-rule="nonzero" d="M11 22c-2.757 0-5 2.243-5 5s2.243 5 5 5 5-2.243 5-5-2.243-5-5-5z"/>
        <path fill="#FD8" fill-rule="nonzero" d="M63.13 11.862l-5.483-3.48-.224-6.567A1.884 1.884 0 0 0 56.5.252 1.822 1.822 0 0 0 54.706.22L49 3.307v20.3l5.706 3.085a1.822 1.822 0 0 0 1.794-.031c.552-.324.901-.915.923-1.562l.224-6.568 5.483-3.48c.542-.344.87-.946.87-1.595 0-.648-.328-1.25-.87-1.594z"/>
    </g>
</svg>
