<svg xmlns="http://www.w3.org/2000/svg" width="64" height="64" viewBox="0 0 64 64">
    <g fill="none" fill-rule="nonzero">
        <path fill="#26A5B3" d="M12.934 45.285l18.62-18.746L50.3 45.16 31.68 63.903z"/>
        <path fill="#F9BB2F" d="M49.886 7.503c.098.099.196.184.294.282 10.336 10.275 10.397 27.035.123 37.37l-8.705-8.643c5.505-5.542 5.468-14.517-.074-20.022l8.644-8.705-.282-.282z"/>
        <path fill="#EE5759" d="M12.798 7.908c.098-.098.196-.184.282-.282l-.282.282 8.705 8.644c-5.505 5.541-5.469 14.516.073 20.021l-8.643 8.705C2.585 35.016 2.536 18.256 12.798 7.908zM41.524 16.49l-9.968 10.042-10.041-9.98c5.493-5.53 14.467-5.554 20.01-.062z"/>
        <path fill="#EE436B" d="M13.092 7.626c10.2-9.956 26.532-10.017 36.794-.123l.282.282-8.644 8.705c-5.542-5.492-14.516-5.468-20.01.074L12.81 7.92l.282-.294z"/>
        <path fill="#F2858C" d="M12.92 45.29l8.644-8.705a14.046 14.046 0 0 1-4.18-9.992 14.103 14.103 0 0 1 4.106-10.029L12.785 7.92C7.82 12.923 5.098 19.568 5.122 26.63c.025 7.05 2.796 13.683 7.798 18.66z"/>
        <path fill="#00579A" d="M21.552 36.843a14.502 14.502 0 0 1-4.304-10.299 14.51 14.51 0 0 1 4.23-10.323 14.502 14.502 0 0 1 10.299-4.304 14.51 14.51 0 0 1 10.323 4.23 14.502 14.502 0 0 1 4.304 10.299 14.51 14.51 0 0 1-4.23 10.323 14.502 14.502 0 0 1-10.299 4.304 14.408 14.408 0 0 1-10.323-4.23z"/>
        <path fill="#193A66" d="M29.705 24.398a2.997 2.997 0 0 1 4.23-.012L42.1 16.16c-5.7-5.664-14.945-5.627-20.61.074l8.215 8.165z"/>
        <circle cx="31.5" cy="26.5" r="4.5" fill="#FFF"/>
    </g>
</svg>
