<svg xmlns="http://www.w3.org/2000/svg" width="216" height="50" viewBox="0 0 216 50">
    <g fill="none" fill-rule="nonzero">
        <g fill="#083766">
            <path d="M52.317 16.478c2.935 0 5.627.978 7.706 2.895a11.442 11.442 0 0 1 3.793 8.522c0 3.507-1.51 6.728-4.2 9.012-1.958 1.672-4.486 2.569-7.34 2.569-2.61 0-4.893-.734-6.973-2.365v.978a.818.818 0 0 1-.816.816h-3.506a.818.818 0 0 1-.816-.816V10.73c0-.45.367-.816.816-.816h3.506c.449 0 .816.367.816.815v8.033c1.998-1.63 4.24-2.283 7.014-2.283zm-.612 17.941c3.955 0 6.769-2.813 6.769-6.442 0-3.507-2.895-6.484-6.524-6.484-3.63 0-6.402 2.814-6.402 6.565-.041 3.63 2.813 6.361 6.157 6.361zM83.796 36.214c-1.264 2.202-3.507 3.18-6.973 3.18-6.687 0-11.621-5.015-11.621-11.54 0-3.058 1.142-5.912 3.221-8.033 2.243-2.324 4.934-3.384 8.278-3.384 3.262 0 5.586 1.06 7.054 3.221v-1.835c0-.448.367-.815.816-.815h3.466c.448 0 .815.367.815.815V38.09a.818.818 0 0 1-.815.816h-3.425a.818.818 0 0 1-.816-.816v-1.875zm-6.81-1.958c3.263 0 6.198-2.854 6.198-6.239 0-3.67-3.017-6.524-6.28-6.524-3.465 0-6.36 2.732-6.36 6.28 0 3.792 2.936 6.483 6.442 6.483zM104.348 16.478c2.935 0 5.627.978 7.706 2.895a11.442 11.442 0 0 1 3.793 8.522c0 3.507-1.51 6.728-4.2 9.012-1.958 1.672-4.486 2.569-7.34 2.569-2.61 0-4.893-.734-6.973-2.365v.978a.818.818 0 0 1-.816.816h-3.506a.818.818 0 0 1-.816-.816V10.73c0-.45.367-.816.816-.816h3.506c.449 0 .816.367.816.815v8.033c1.998-1.63 4.24-2.283 7.014-2.283zm-.612 17.941c3.955 0 6.769-2.813 6.769-6.442 0-3.507-2.895-6.484-6.524-6.484-3.63 0-6.402 2.814-6.402 6.565-.041 3.63 2.813 6.361 6.157 6.361zM128.365 9.913h3.466c.449 0 .816.367.816.815V38.09a.818.818 0 0 1-.816.816h-3.466a.818.818 0 0 1-.815-.816V10.73c0-.45.367-.816.815-.816zM138.478 19.78c2.242-2.201 5.178-3.425 8.196-3.425 3.262 0 5.953 1.06 8.196 3.14 2.324 2.202 3.67 5.22 3.67 8.237 0 3.303-1.101 6.076-3.344 8.318-2.243 2.284-5.138 3.426-8.481 3.426-3.344 0-6.076-1.142-8.4-3.507-2.12-2.243-3.303-5.016-3.303-8.115.081-3.058 1.223-5.912 3.466-8.073zm8.318 14.64c3.792 0 6.32-2.529 6.32-6.729 0-3.751-2.732-6.32-6.32-6.32-3.751 0-6.32 2.65-6.32 6.443 0 4.118 2.487 6.605 6.32 6.605zM166.124 19.495c1.55-1.998 3.466-2.936 5.994-2.936 3.263 0 5.628 1.224 7.218 3.589 1.346 2.038 1.468 4.322 1.468 7.176V38.09a.818.818 0 0 1-.816.816H176.4a.818.818 0 0 1-.816-.816V29.2c0-5.179-.815-7.666-4.648-7.666-3.833 0-4.893 2.691-4.893 7.992v8.563a.818.818 0 0 1-.816.816h-3.425a.818.818 0 0 1-.816-.816V17.823c0-.448.367-.815.816-.815h3.466c.449 0 .815.367.815.815v1.672h.041zM119.435 38.905h3.466a.818.818 0 0 0 .816-.816V17.823a.818.818 0 0 0-.816-.815h-3.466a.818.818 0 0 0-.816.815V38.09c0 .449.367.816.816.816zM121.23 9.546h-.286a2.776 2.776 0 0 0-2.773 2.772 2.776 2.776 0 0 0 2.773 2.773h.285a2.776 2.776 0 0 0 2.773-2.773c.04-1.508-1.223-2.772-2.773-2.772zM185.29 38.905h3.465a.818.818 0 0 0 .816-.816V17.823a.818.818 0 0 0-.816-.815h-3.466a.818.818 0 0 0-.815.815V38.09c0 .449.367.816.815.816zM186.961 15.132h.286a2.776 2.776 0 0 0 2.772-2.773 2.776 2.776 0 0 0-2.772-2.773h-.286a2.776 2.776 0 0 0-2.773 2.773c-.04 1.509 1.224 2.773 2.773 2.773zM210.652 36.214c-1.264 2.202-3.506 3.18-6.972 3.18-6.688 0-11.622-5.015-11.622-11.54 0-3.058 1.142-5.912 3.222-8.033 2.242-2.324 4.934-3.384 8.277-3.384 3.262 0 5.587 1.06 7.055 3.221v-2.65h4.281c.449 0 .816.367.816.815V38.09a.818.818 0 0 1-.816.816h-3.425a.818.818 0 0 1-.816-.816v-1.875zm-6.81-1.958c3.263 0 6.199-2.854 6.199-6.239 0-3.67-3.018-6.524-6.28-6.524-3.466 0-6.361 2.732-6.361 6.28-.04 3.792 2.936 6.483 6.443 6.483z"/>
        </g>
        <path fill="#FDBD32" d="M22.509 24.96H0v19.735c0 .53.449.979.979.979H18.553c6.076 0 11.5-5.057 11.05-11.132-.325-4.893-4.24-7.177-7.094-9.583z"/>
        <path fill="#083766" d="M22.509 24.96H0V4.978C0 4.449.449 4 .979 4h16.555c6.076 0 11.01 4.118 11.01 10.194 0 3.589-2.528 7.952-6.035 10.765z"/>
        <path fill="#FF8F9D" d="M15.373 16.233H0v8.726h22.509z"/>
        <path fill="#FF4069" d="M15.373 34.338l7.136-9.379H0v9.379z"/>
    </g>
</svg>
