
<svg width="286px" height="154px" viewBox="0 0 286 154" version="1.1" xmlns="http://www.w3.org/2000/svg" xmlns:xlink="http://www.w3.org/1999/xlink">
  <g id="Page-1" stroke="none" stroke-width="1" fill="none" fill-rule="evenodd">
    <g id="placeholder" transform="translate(-1.000000, 0.000000)" fill-rule="nonzero">
      <path d="M42.675,150.951 C34.042,152.527 24.34,152.953 17.33,147.671 C10.32,142.391 9.214,129.488 17.155,125.748 C8.534,121.878 0.755,113.891 1.005,104.438 C1.258,94.983 13.26,86.922 20.726,92.715 C16.903,81.725 13.364,68.576 20.348,59.274 C27.252,50.081 40.652,49.708 52.132,50.191 C46.848,37.674 51.041,21.832 61.82,13.575 C72.6,5.315 88.973,5.405 99.662,13.78 C102.785,5.257 115.319,3.812 122.706,9.075 C130.094,14.341 133.335,23.625 135.444,32.455 C144.317,69.567 140.754,108.381 137.138,146.368 L42.675,150.951 M241.896,152 C253.609,152 261.358,151.186 268.36,145.142 C271.334,142.572 274.657,140.013 275.698,136.238 C276.742,132.461 275.036,127.741 271.274,126.561 C273.562,125.716 274.443,122.971 274.634,120.557 C275.069,115.059 273.24,109.155 268.89,105.722 C264.542,102.288 257.53,102.127 253.727,106.149 C256.219,103.089 254.822,98.218 251.807,95.665 C248.79,93.114 244.697,92.301 240.789,91.648 C238.353,91.241 235.886,90.86 233.422,91.051 C230.144,91.303 227.008,92.569 224.209,94.285 C217.346,98.49 212.326,105.56 210.642,113.389 C208.957,121.221 210.632,129.707 215.166,136.329 C218.079,140.579 223.252,144.311 228.129,142.585" id="Shape" fill="#C2C5C8"></path>
      <polygon id="Path" fill="#F3F3F4" points="91 152 242 152 242 58 91 58"></polygon>
      <path d="M232,131 L232,128 L242,128 L242,131 L232,131 Z M125,80 L125,77 L131,77 L131,80 L125,80 Z M135,84 L135,81 L141,81 L141,84 L135,84 Z M238,136 L238,133 L241,133 L241,136 L238,136 Z" id="Shape" fill="#E6E7E8"></path>
      <path d="M97,72.996 L241,72.996 L241,71.004 L97,71.004 L97,72.996 Z M241,71 L97,71 L97,65 L239.586,65 L241,66.5 L241,71 L241,71 Z" id="Shape" fill="#858B90"></path>
      <polyline id="Path" fill="#858B90" points="70.361 35.362 101.612 0.011 212.074 0.011 256.91 65.721 51.885 65.721 70.361 35.362"></polyline>
      <polyline id="Path" fill="#E6E7E8" points="98 152 35 152 35 60.855 66.5 30 98 65.118 98 152"></polyline>
      <path d="M98,71 L67.254,35.676 L35,67.967 L35,63.456 L66.774,30 L76.514,40.886 L76.522,40.894 L77.061,41.497 L77.886,42.418 L85.63,51.073 L86.164,51.668 L98,64.895 L98,71 M35,63.456 L35,63.091 L35,63.456" id="Shape" fill="#C2C5C8"></path>
      <path d="M103.466,66.401 L68.674,26.729 C68.2808201,26.2807059 67.7184295,26.0167856 67.1223559,26.0008396 C66.5262823,25.9848937 65.9505856,26.2183685 65.534,26.645 L26.59,66.457 C25.798,67.267 25.804,68.567 26.604,69.371 C27.441,70.211 28.8,70.209 29.638,69.369 L65.732,33.11 C66.1511011,32.6881426 66.726835,32.4596902 67.3211583,32.4794188 C67.9154816,32.4991474 68.4747978,32.7652778 68.865,33.214 L100.182,69.169 C100.922,70.019 102.201,70.229 103.111,69.566 C103.601299,69.209936 103.919127,68.6639829 103.98667,68.0618097 C104.054212,67.4596365 103.865232,66.8568377 103.466,66.401 L103.466,66.401 Z M109,142 L140,142 L140,87 L109,87 L109,142 Z" id="Shape" fill="#858B90"></path>
      <path d="M110,140 L137,140 L137,88 L110,88 L110,140 Z M174,117 L216,117 L216,82 L174,82 L174,117 Z" id="Shape" fill="#C2C5C8"></path>
      <path d="M185.141,101 L185,100.94 L185.005,100.658 L189.722,96 L190,96.005 L189.995,96.287 L185.279,100.944 L185.141,101 L185.141,101 Z M191.141,102 L191,101.94 L191.005,101.658 L195.72,97 L195.999,97.005 L195.994,97.287 L191.278,101.944 L191.14,102 L191.141,102 Z M183.145,105 L183,104.939 L183.015,104.674 L197.725,92 L198,92.015 L197.985,92.278 L183.275,104.952 L183.145,105 L183.145,105 Z M206.141,115 L206,114.94 L206.005,114.656 L210.722,110 L211,110.003 L210.997,110.287 L206.279,114.944 L206.141,115 L206.141,115 Z M199.145,113 L199,112.939 L199.015,112.676 L213.725,100 L214,100.015 L213.985,100.278 L199.273,112.954 L199.145,113 L199.145,113 Z" id="Shape" fill="#F3F3F4"></path>
      <path d="M186.08,100.775 L174,100.775 L174,99.225 L186.08,99.225 L186.08,82 L187.92,82 L187.92,99.225 L201.079,99.225 L201.079,82 L202.921,82 L202.921,99.225 L216,99.225 L216,100.775 L202.921,100.775 L202.921,117 L201.079,117 L201.079,100.775 L187.92,100.775 L187.92,117 L186.08,117 L186.08,100.775 L186.08,100.775 Z M216.798,120 L172.202,120 C171.537,120 171,119.527 171,118.942 L171,118.057 C171,117.474 171.537,117 172.202,117 L216.798,117 C217.46,117 218,117.474 218,118.057 L218,118.942 C218,119.527 217.46,120 216.798,120 L216.798,120 Z" id="Shape" fill="#858B90"></path>
      <path d="M160,143 L161.483,143 C162.316565,142.996124 162.995593,143.668438 163,144.502 C163,145.329 162.321,146 161.483,146 L152.516,146 C151.683926,146.004432 151.005506,145.334067 151,144.502 C151,143.672 151.68,143 152.516,143 L155,143 L155,74 L152.516,74 C151.683601,74.0033258 151.005506,73.3323877 151,72.5 C151,71.671 151.68,71 152.516,71 L161.483,71 C162.321,71 163,71.671 163,72.5 C163,73.327 162.321,74 161.483,74 L160,74 L160,124 L230,124 L230,74 L227.518,74 C226.684822,74.0044324 226.005506,73.333172 226,72.5 C226,71.671 226.68,71 227.518,71 L236.483,71 C237.321,71 238,71.671 238,72.5 C238,73.327 237.321,74 236.483,74 L235,74 L235,143 L236.483,143 C237.316565,142.996124 237.995593,143.668438 238,144.502 C238,145.329 237.321,146 236.483,146 L227.518,146 C226.685372,146.004988 226.006055,145.334621 226,144.502 C226,143.672 226.68,143 227.518,143 L230,143 L230,128 L223,128 L223,147 L220,147 L220,128 L210,128 L210,147 L207,147 L207,128 L196,128 L196,147 L193,147 L193,128 L182,128 L182,147 L179,147 L179,128 L169,128 L169,147 L166,147 L166,128 L160,128 L160,143 Z" id="Path" fill="#C2C5C8"></path>
      <polygon id="Path" fill="#858B90" points="151 152 242 152 242 146 151 146"></polygon>
      <path d="M55,69 C55,61.267 59.925,55 66,55 C72.075,55 77,61.267 77,69" id="Path" fill="#C2C5C8"></path>
      <path d="M76.463,68 C76.065,61 71.523,55.464 66.002,55.464 C60.477,55.464 55.936,61.001 55.538,68 L76.463,68 Z M54.026,68.003 C54.438,60.196 59.652,54 66.002,54 C72.349,54 77.561,60.195 77.974,68 L78.886,68 C79.501,68 80,68.456 80,69.02 L80,69.982 C80,70.544 79.501,71 78.886,71 L54.114,71 C53.499,71 53,70.544 53,69.982 L53,69.02 C53,68.483 53.452,68.044 54.026,68.003 L54.026,68.003 Z M151,142 L151,152 L98,152 L98,142 L151,142 Z" id="Shape" fill="#858B90"></path>
      <path d="M116.085,109 L116,108.964 L116.003,108.794 L118.833,106 L119,106.001 L118.997,106.171 L116.167,108.966 L116.085,109 L116.085,109 Z M121.085,110 L121,109.964 L121.003,109.794 L123.833,107 L124,107.003 L123.997,107.173 L121.167,109.966 L121.085,110 L121.085,110 Z M119.085,135 L119,134.963 L119.003,134.793 L121.835,132 L122,132.003 L121.999,132.171 L119.167,134.966 L119.085,135 L119.085,135 Z M114.093,114 L114,113.962 L114.002,113.776 L124.815,103 L125,103.002 L125,103.186 L114.185,113.962 L114.093,114 L114.093,114 Z" id="Shape" fill="#F3F3F4"></path>
      <path d="M98,83 L35,83 L35.03,75.194 L98,75 L98,83 L98,83 Z M50,136 L83,136 L83,96 L50,96 L50,136 Z" id="Shape" fill="#C2C5C8"></path>
      <path d="M97.306,82 L34.694,82 C33.758,82 33,81.28 33,80.39 L33,75.61 C33,74.72 33.758,74 34.694,74 L97.306,74 C98.242,74 99,74.72 99,75.61 L99,80.39 C99,81.28 98.242,82 97.306,82" id="Path" fill="#858B90"></path>
      <path d="M35,92 L41,92 L41,89 L35,89 L35,92 Z M38,97 L44,97 L44,94 L38,94 L38,97 Z M86,149 L92,149 L92,146 L86,146 L86,149 Z M91,145 L97,145 L97,142 L91,142 L91,145 Z" id="Shape" fill="#C2C5C8"></path>
      <polygon id="Path" fill="#F89655" points="238 88 241 88 241 85 238 85"></polygon>
      <polygon id="Path" fill="#C2C5C8" points="50 146 56 146 56 143 50 143"></polygon>
      <path d="M60.141,117 L60,116.94 L60.005,116.658 L64.722,112 L65,112.003 L64.997,112.285 L60.279,116.943 L60.141,117 L60.141,117 Z M65.141,118 L65,117.94 L65.003,117.658 L69.723,113 L70,113.003 L69.997,113.285 L65.277,117.943 L65.141,118 L65.141,118 Z M57.144,121 L57,120.938 L57.015,120.674 L71.727,108 L72,108.013 L71.985,108.277 L57.273,120.952 L57.143,121 L57.144,121 Z" id="Shape" fill="#E6E7E8"></path>
      <polygon id="Path" fill="#858B90" points="65.079 122.08 65.079 109.92 50 109.92 50 108.08 65.079 108.08 65.079 96 66.921 96 66.921 108.08 83 108.08 83 109.92 66.921 109.92 66.921 122.08 83 122.08 83 123.92 66.921 123.92 66.921 138 65.079 138 65.079 123.92 50 123.92 50 122.08 65.079 122.08"></polygon>
      <path d="M82.06,140 L49.94,140 C48.868,140 48,139.104 48,138 C48,136.896 48.868,136 49.94,136 L82.06,136 C83.132,136 84,136.896 84,138 C84,139.104 83.132,140 82.06,140" id="Path" fill="#858B90"></path>
      <path d="M283.635,72.604 C287.797,62.778 279.001,49.454 268.625,55.412 C268.292501,54.8720023 267.9261,54.3536291 267.528,53.86 C266.127,51.912 264.536,50.21 262.576,48.785 C259.859,46.81 256.726,45.412 253.339,45.079 C247.449,44.501 242.159,47.146 238.969,51.59 C235.331,50.017 230.781,51.352 228.955,55.812 C228.27,57.485 228.125,59.092 228.389,60.552 C223.895,63.739 223.615,70.68 229.092,74.36 C223.062,84.515 234.134,95.162 243.93,89.583 C245.332,94.629 249.107,98.621 254.99,98.975 C258.59,99.193 261.94,97.972 264.28,95.228 C265.407,93.908 265.797,92.268 266.62,90.872 C266.79,91.017 266.968,91.166 267.193,91.322 C278.863,99.536 293.773,81.25 283.635,72.604" id="Path" fill="#C2C5C8"></path>
      <path d="M249.857,99.48 C249.847,94.62 250.043,89.789 250.915,85.102 L251.06,85.102 C253.062,96.551 250.993,84.842 255.385,75.402 C255.747,74.622 256.885,75.1 256.932,75.801 C257.39,82.494 255.402,89.392 254.749,96.081 C254.413,99.542 254.161,103.011 253.989,106.482 C258.079,102.235 261.135,96.931 262.786,91.188 C262.902,90.782 263.041,90.334 263.393,90.115 C263.937,89.775 264.684,90.237 264.898,90.855 C265.111,91.475 264.951,92.158 264.775,92.79 C262.84,99.713 259.066,106.076 253.971,111 L253.828,110.48 C253.795201,111.521479 253.769534,112.56317 253.751,113.605 C253.527,126.228 254.263,138.971 255.693,151.519 C255.731,151.836 255.482,152.186 255.202,152.335 C253.05,153.491 251.436,153.925 248.954,154.000362 C248.46,154.015 247.972,153.572 248.001,153.094 C248.708,141.284 249.397,129.459 249.933,117.641 C250.155,112.739 249.968,107.714 249.888,102.692 C245.081,97.862 242.564,91.556 243.062,84.628 C243.122,83.795 244.35,83.786 244.389,84.628 C244.636,90.065 246.519,95.262 249.857,99.479 L249.857,99.48 Z" id="Path" fill="#858B90"></path>
    </g>
  </g>
</svg>