<svg xmlns="http://www.w3.org/2000/svg" xmlns:xlink="http://www.w3.org/1999/xlink" width="375" height="375" viewBox="-50 -45 375 375">
    <defs>
        <path id="a" d="M114.389 67.25v-4.686l-12.315-12.028h4.817v-.123l8.611 8.472c1.08 1.01.366 2.82-1.113 2.82v5.546zM.05 57.475v-2.017L55.658.007 91.896 35.66v4.936l-37.8-36.919L.052 57.474z"/>
        <path id="c" d="M45.375 90.083C20.683 90.083.667 70.067.667 45.375S20.683.667 45.375.667s44.708 20.016 44.708 44.708-20.016 44.708-44.708 44.708z"/>
        <path id="e" d="M140.017 82.937v-5.78l-15.074-14.833h5.897v-.152l10.54 10.448c1.322 1.245.448 3.478-1.363 3.478v6.84zM.062 70.88v-2.488L68.13.008l44.356 43.97v6.087L66.217 4.535.062 70.88z"/>
    </defs>
    <g fill="none" fill-rule="evenodd">
        <path fill="#E1E2E4" d="M105.193 220.449c-10.426 4.457-23.001 3.49-32.623-2.506-5.506-3.432-10.27-8.953-10.56-15.435-.29-6.48 5.58-13.2 11.95-11.97-2.583-4.41-5.117-9.04-5.626-14.125-.509-5.083 1.511-10.76 6.061-13.084 3.337-1.705 7.664-1.235 10.558 1.145 1.083-8.602 4.007-17.357 10.306-23.314 6.298-5.957 16.54-8.277 23.876-3.659 6.574 4.14 9.185 12.31 10.95 19.877a248.274 248.274 0 0 1 5.067 29.858c.642 5.987.744 12.889-3.65 17.004l-26.31 16.209"/>
        <path fill="#E6E7E8" d="M194.478 123.641h14.995V86.154h-14.995z"/>
        <path fill="#C2C5C8" d="M201.273 109.037v-6.013h-6.795v-1.406h14.995v1.406h-6.795v6.013h6.795v1.405h-14.995v-1.405h6.795zm1.405-21.009v6.17h6.795v1.406h-14.995v-1.406h6.795v-6.17h-8.122c-.96 0-1.739-.778-1.739-1.737v-3.71c0-.96.779-1.738 1.739-1.738h17.65c.96 0 1.738.779 1.738 1.738v3.71c0 .959-.779 1.737-1.739 1.737h-8.122zm-8.2 28.918v-1.405h14.995v1.405h-14.995z"/>
        <path fill="#F9F9FA" d="M156.678 76.783l-54.045 53.796v86.157H216.97v-81.067l-60.292-58.886"/>
        <g transform="translate(102.582 73.105)">
            <mask id="b" fill="#fff">
                <use xlink:href="#a"/>
            </mask>
            <path fill="#D4D5CD" d="M.05 67.25h116.53V.007H.05z" mask="url(#b)"/>
        </g>
        <path fill="#D16447" d="M209.473 123.641h-4.818l-6.854-6.695h4.993l6.68 6.572v.123m-8.109-8.1h-5.003l-1.884-1.84v-4.936l.276.272h-.276v1.405h1.705l5.182 5.099"/>
        <path fill="#A54C47" d="M196.183 110.442h-1.705v-1.405h.276l1.43 1.405M202.794 116.946H197.8l-1.439-1.405h5.003l1.429 1.405"/>
        <path fill="#E6E7E8" d="M216.97 140.356L158.24 84.67l-55.607 52.718v-6.809l54.045-53.796 60.292 58.886v4.687"/>
        <path fill="#C2C5C8" d="M98.182 225.796h123.24v-9.06H98.182z"/>
        <path fill="#E6E7E8" d="M117.082 196.04h44.047v-36.55h-44.047z"/>
        <path fill="#C2C5C8" d="M176.125 216.736h29.052v-58.887h-29.052z"/>
        <path fill="#E6E7E8" d="M178.478 213.69h24.346v-52.092h-24.346z"/>
        <path fill="#C2C5C8" d="M206.017 159.49H175.44a1.27 1.27 0 0 1-1.27-1.27v-2.382c0-.7.57-1.269 1.27-1.269h30.576c.7 0 1.27.57 1.27 1.269v2.382a1.27 1.27 0 0 1-1.27 1.27M155.652 73.05l-59.59 57.965c-2.387 2.324-.744 6.372 2.588 6.372.953 0 1.868-.366 2.558-1.022l54.473-51.838a3.71 3.71 0 0 1 5.117 0l54.473 51.838a3.708 3.708 0 0 0 2.558 1.022c3.332 0 4.976-4.048 2.588-6.372L160.828 73.05a3.713 3.713 0 0 0-5.176 0"/>
        <path fill="#E6E7E8" d="M109.115 148.243v-5.154h9.841v5.154h-9.84zm80.443-8.278v-5.155h9.84v5.155h-9.84zm-70.602 3.124v-5.155h9.84v5.155h-9.84zm-16.323 52.482v-5.154h8.005v5.154h-8.005z"/>
        <path fill="#FAFAFA" d="M125.008 174.163l-.167-.071.004-.33 5.623-5.468.33.005-.003.331-5.623 5.467-.164.066zm6.908.933l-.168-.07.005-.332 5.622-5.467.332.005-.005.33-5.623 5.468-.163.066zm-9.49 4.638l-.173-.078.018-.331 17.807-15.932.33.018-.018.33-17.807 15.933-.156.06z"/>
        <path fill="#C2C5C8" d="M127.82 177.14v-17.65h-12.008v-1.64h46.586v1.64H150.39v17.65h10.74v1.25h-10.74v14.605h-1.483V178.39h-9.06v14.605h-1.484V178.39h-9.059v14.605h-1.484V178.39h-10.738v-1.25h10.738zm1.484 0h9.06v-17.65h-9.06v17.65zm10.544 0h9.059v-17.65h-9.06v17.65z"/>
        <path fill="#FAFAFA" d="M183.096 182.468l-.169-.071.005-.332 5.624-5.467.33.004-.003.333-5.623 5.467-.164.066zm9.525 1.946l-.169-.07.005-.332 5.623-5.467.332.005-.005.332-5.623 5.466-.163.066zm-11.945 6.198l-.167-.07.002-.33 19.338-19.183.332.002-.002.33-19.338 19.183-.165.068z"/>
        <path fill="#E6E7E8" d="M171.048 115.675c0 6.212-5.035 11.247-11.246 11.247-6.212 0-11.247-5.035-11.247-11.247 0-6.21 5.035-11.245 11.247-11.245 6.21 0 11.246 5.034 11.246 11.245"/>
        <path fill="#C2C5C8" d="M158.347 106.05a9.758 9.758 0 0 0-8.171 8.17h8.17v-8.17zm-8.171 11.08a9.758 9.758 0 0 0 8.17 8.171v-8.17h-8.17zm11.081 8.171a9.758 9.758 0 0 0 8.171-8.17h-8.17v8.17zm8.171-11.081a9.758 9.758 0 0 0-8.17-8.17v8.17h8.17zm-9.626 14.342c-7.106 0-12.886-5.78-12.886-12.887 0-7.105 5.78-12.886 12.886-12.886 7.105 0 12.886 5.781 12.886 12.886 0 7.106-5.781 12.887-12.886 12.887z"/>
        <path fill="#F3F3F4" d="M122.327 196.225c-2.006-.42-3.612-2.295-3.72-4.34-.019-.356.005-.724.155-1.048.321-.694 1.16-1.027 1.924-.984.764.043 1.474.386 2.162.723-1.638-2.129-2.868-5.005-1.772-7.456.292-.654.845-1.294 1.562-1.295.754-.001 1.306.685 1.716 1.317a33.504 33.504 0 0 1 2.708 5.083c.282-1.85.865-3.865 2.46-4.847.233-.143.501-.264.774-.232.26.03.485.194.673.376 1.382 1.335 1.256 3.546 1.029 5.455.42-1.271 2.143-1.745 3.35-1.168 1.208.576 1.913 1.888 2.18 3.2.214 1.05.189 2.186-.301 3.14-.49.955-1.51 1.677-2.58 1.604M138.788 194.699c-.362.084-.602-.363-.686-.725-.323-1.397-.228-3.134.98-3.904.737-.468 1.707-.428 2.518-.108.813.32 1.501.884 2.174 1.439-.081-1.255.238-2.597 1.14-3.472.903-.873 2.468-1.105 3.427-.292.847.719 1.062 2.03 1.996 2.634.072-.836-.156-1.665-.212-2.502-.055-.837.113-1.772.776-2.286.976-.756 2.51-.125 3.13.943.62 1.068.585 2.378.533 3.611.26-.772.654-1.666 1.455-1.813.69-.127 1.337.387 1.734.965 1.132 1.657.906 4.107-.51 5.529"/>
        <path fill="#C2C5C8" d="M117.218 192.995h43.775a2.771 2.771 0 0 1 2.772 2.772v4.764a2.771 2.771 0 0 1-2.772 2.772h-43.775a2.771 2.771 0 0 1-2.772-2.772v-4.764a2.771 2.771 0 0 1 2.772-2.772"/>
        <g transform="translate(128.333 95.333)">
            <mask id="d" fill="#fff">
                <use xlink:href="#c"/>
            </mask>
            <use fill="#FFF" fill-opacity=".508" fill-rule="nonzero" xlink:href="#c"/>
            <g mask="url(#d)">
                <path fill="#E1E2E4" d="M-43.429 133.267c-12.77 5.46-28.172 4.276-39.957-3.069-6.744-4.204-12.58-10.968-12.935-18.907-.356-7.937 6.835-16.169 14.636-14.663-3.163-5.401-6.266-11.074-6.89-17.302-.624-6.227 1.851-13.181 7.424-16.028 4.087-2.087 9.387-1.512 12.931 1.403 1.327-10.537 4.909-21.262 12.624-28.558 7.714-7.297 20.258-10.14 29.245-4.482 8.053 5.071 11.25 15.08 13.412 24.348a304.143 304.143 0 0 1 6.206 36.574c.787 7.335.912 15.789-4.471 20.83l-32.225 19.854"/>
                <path fill="#E6E7E8" d="M65.667 14.667h18v-46h-18z"/>
                <path fill="#C2C5C8" d="M73.802-3.973v-7.328h-8.363v-1.713h18.455v1.713h-8.362v7.328h8.362v1.713H65.44v-1.713h8.363zm1.73-25.604v7.52h8.362v1.713H65.44v-1.713h8.363v-7.52h-9.996a2.129 2.129 0 0 1-2.14-2.117v-4.522c0-1.169.959-2.117 2.14-2.117h21.721c1.182 0 2.14.948 2.14 2.117v4.522a2.129 2.129 0 0 1-2.14 2.117h-9.995zM65.439 5.667V3.953h18.455v1.714H65.44z"/>
                <path fill="#F9F9FA" d="M19.843-43.333l-66.176 66.115v105.885h140v-99.63l-73.824-72.37"/>
                <g transform="translate(-46.333 -47.333)">
                    <mask id="f" fill="#fff">
                        <use xlink:href="#e"/>
                    </mask>
                    <path fill="#D4D5CD" d="M.062 82.937H142.7V.007H.062z" mask="url(#f)"/>
                </g>
                <path fill="#D16447" d="M83.667 14.667h-5.783l-8.228-8.1h5.993l8.018 7.95v.15m-9.733-9.802H67.93L65.667 2.64v-5.972l.332.328h-.332v1.701h2.047l6.22 6.17"/>
                <path fill="#A54C47" d="M67.667-1.333h-2v-2h.324l1.676 2M76.667 6.667h-6.21l-1.79-2h6.223l1.777 2"/>
                <path fill="#E6E7E8" d="M93.667 34.667L21.755-33.657l-68.088 64.683v-8.354l66.176-66.005 73.824 72.25v5.75"/>
                <path fill="#C2C5C8" d="M-52.333 139.667h151v-11h-151z"/>
                <path fill="#E6E7E8" d="M-29.333 103.667h54v-45h-54z"/>
                <path fill="#C2C5C8" d="M43.667 128.667h36v-72h-36z"/>
                <path fill="#E6E7E8" d="M46.667 124.667h30v-64h-30z"/>
                <path fill="#C2C5C8" d="M80.094 58.667H42.24a1.561 1.561 0 0 1-1.572-1.549v-2.904c0-.854.704-1.547 1.572-1.547h37.855c.868 0 1.573.693 1.573 1.547v2.904c0 .855-.705 1.549-1.573 1.549M17.999-47.048L-54.949 23.87c-2.922 2.843-.91 7.796 3.168 7.796a4.54 4.54 0 0 0 3.13-1.251l66.686-63.422a4.544 4.544 0 0 1 6.263 0l66.685 63.422a4.54 4.54 0 0 0 3.13 1.25c4.08 0 6.093-4.952 3.169-7.795L24.335-47.05a4.547 4.547 0 0 0-6.336 0"/>
                <path fill="#E6E7E8" d="M-38.361 44.247v-6.362h12.102v6.362H-38.36zm98.927-10.218v-6.362h12.1v6.362h-12.1zm-86.825 3.856v-6.362h12.101v6.362h-12.1zm-20.074 64.782v-6.363h9.844v6.363h-9.844z"/>
                <path fill="#FAFAFA" d="M-18.994 76.848l-.203-.087.004-.404 6.814-6.693.402.007-.005.405-6.814 6.691-.198.081zm8.37 1.143l-.204-.087.006-.406 6.814-6.691.402.006-.006.404-6.814 6.693-.197.08zm-11.499 5.676l-.21-.095.021-.406 21.579-19.5.4.022-.022.405-21.578 19.5-.19.074z"/>
                <path fill="#C2C5C8" d="M-15.641 80.268V58.674h-14.692v-2.007h57v2.007H11.975v21.594h13.14v1.53h-13.14v17.869H10.16V81.798H-.924v17.869h-1.817V81.798h-11.084v17.869h-1.816V81.798H-28.78v-1.53h13.139zm1.816 0h11.084V58.674h-11.084v21.594zm12.9 0H10.16V58.674H-.924v21.594z"/>
                <path fill="#FAFAFA" d="M51.823 86.685l-.206-.087.006-.406 6.861-6.7.403.005-.004.408-6.86 6.7-.2.08zm11.62 2.386l-.205-.087.006-.407 6.86-6.7.405.007-.007.406-6.86 6.7-.198.08zM48.87 96.667l-.203-.086.001-.406 23.594-23.508.405.003-.002.404-23.594 23.509-.201.084z"/>
                <path fill="#E6E7E8" d="M37.667 4.666c0 7.733-6.268 14-14 14-7.733 0-14-6.267-14-14 0-7.732 6.267-14 14-14 7.732 0 14 6.268 14 14"/>
                <path fill="#C2C5C8" d="M21.86-7.285C16.639-6.5 12.5-2.361 11.715 2.86H21.86V-7.285zM11.715 6.474c.786 5.22 4.924 9.359 10.145 10.145V6.474H11.715zm13.759 10.145c5.22-.786 9.359-4.924 10.145-10.145H25.474v10.145zm10.145-13.76c-.786-5.22-4.924-9.358-10.145-10.144V2.86h10.145zM23.667 20.668c-8.823 0-16-7.177-16-16 0-8.822 7.177-16 16-16 8.821 0 16 7.178 16 16 0 8.823-7.179 16-16 16z"/>
                <path fill="#F3F3F4" d="M-21.837 103.667c-2.42-.526-4.36-2.869-4.49-5.426-.023-.444.007-.904.187-1.31.388-.868 1.4-1.283 2.323-1.23.922.055 1.78.483 2.61.904-1.977-2.66-3.463-6.256-2.14-9.32.353-.817 1.021-1.617 1.885-1.618.91-.002 1.578.855 2.073 1.646a42.4 42.4 0 0 1 3.268 6.354c.34-2.313 1.043-4.832 2.969-6.06.282-.178.605-.33.935-.29.314.039.585.243.812.47 1.668 1.67 1.516 4.434 1.242 6.82.507-1.59 2.587-2.182 4.045-1.461 1.457.72 2.308 2.36 2.63 4 .259 1.313.228 2.733-.364 3.925-.591 1.194-1.822 2.097-3.114 2.005"/>
                <path fill="#F3F3F4" d="M-2.305 101.643c-.44.105-.733-.456-.835-.91-.393-1.752-.277-3.931 1.194-4.896.897-.588 2.078-.537 3.066-.136.99.402 1.828 1.109 2.647 1.805-.099-1.574.29-3.257 1.387-4.355 1.101-1.096 3.006-1.386 4.174-.366 1.031.901 1.294 2.547 2.43 3.303.089-1.048-.19-2.088-.258-3.138-.066-1.05.138-2.223.945-2.867 1.19-.949 3.057-.157 3.812 1.182.754 1.34.713 2.984.65 4.53.316-.968.796-2.09 1.771-2.274.84-.16 1.628.486 2.11 1.21 1.38 2.079 1.105 5.152-.62 6.936"/>
                <path fill="#C2C5C8" d="M-28.96 99.667h53.254c1.863 0 3.373 1.564 3.373 3.495v6.009c0 1.931-1.51 3.496-3.373 3.496H-28.96c-1.863 0-3.372-1.565-3.372-3.496v-6.009c0-1.93 1.509-3.495 3.372-3.495"/>
            </g>
        </g>
        <path fill="#E6E7E8" fill-rule="nonzero" d="M234.897 206.306l-27.453-27.453 4.41-4.409 27.452 27.453z"/>
        <path fill="#858B90" fill-rule="nonzero" d="M174.042 197.056c-31.504 0-57.042-25.309-57.042-56.528C117 109.308 142.538 84 174.042 84c31.503 0 57.041 25.308 57.041 56.528s-25.538 56.528-57.041 56.528zm0-11.306c24.691 0 44.708-20.017 44.708-44.708 0-24.692-20.017-44.709-44.708-44.709-24.692 0-44.709 20.017-44.709 44.709 0 24.691 20.017 44.708 44.709 44.708z"/>
        <path fill="#FFF" fill-rule="nonzero" d="M198.165 121a3.142 3.142 0 0 1-2.2-.89c-5.582-5.449-13.002-8.45-20.895-8.45-7.894 0-15.314 3-20.895 8.45a3.166 3.166 0 0 1-4.402 0 2.987 2.987 0 0 1 0-4.297c6.757-6.597 15.74-10.23 25.296-10.23s18.54 3.634 25.297 10.23a2.987 2.987 0 0 1 0 4.297 3.143 3.143 0 0 1-2.201.89z"/>
        <path fill="#858B90" fill-rule="nonzero" d="M234.167 219.045l3.146-14.733 14.732-3.145 47.395 47.395c4.936 4.936 2.051 10.058-2.885 14.993-4.935 4.936-10.057 7.821-14.993 2.885l-47.395-47.395z"/>
        <path fill="#E6E7E8" fill-rule="nonzero" d="M228.672 212.782c-5.007-5.007-5.007-13.13 0-18.138 5.008-5.007 13.13-5.007 18.138 0l5.857 5.857-18.138 18.138-5.857-5.857z"/>
    </g>
</svg>
